<mxfile host="app.diagrams.net" modified="2022-04-18T13:41:56.968Z" agent="5.0 (Macintosh; Intel Mac OS X 10_15_7) AppleWebKit/605.1.15 (KHTML, like Gecko) Version/15.4 Safari/605.1.15" etag="QnUlxNkFzCOPjRhMgiRk" version="17.4.5" type="github">
  <diagram id="Kf9oxoV-morJJ6hG8QzF" name="Page-1">
    <mxGraphModel dx="848" dy="575" grid="1" gridSize="10" guides="1" tooltips="1" connect="1" arrows="1" fold="1" page="1" pageScale="1" pageWidth="827" pageHeight="1169" background="none" math="0" shadow="0">
      <root>
        <mxCell id="0" />
        <mxCell id="1" parent="0" />
        <mxCell id="VOCYuRBp8f_-Mo9M2Sug-1" value="Program is run" style="ellipse;whiteSpace=wrap;html=1;shadow=0;sketch=0;fontFamily=Comfortaa;fontSource=https%3A%2F%2Ffonts.googleapis.com%2Fcss%3Ffamily%3DComfortaa;fontStyle=1;fontSize=10;" parent="1" vertex="1">
          <mxGeometry x="530" y="300" width="110" height="50" as="geometry" />
        </mxCell>
        <mxCell id="VOCYuRBp8f_-Mo9M2Sug-3" value="&lt;span style=&quot;color: rgb(0, 0, 0); font-style: normal; font-weight: 400; letter-spacing: normal; text-align: center; text-indent: 0px; text-transform: none; word-spacing: 0px; background-color: rgb(248, 249, 250); text-decoration: none; display: inline; float: none; font-size: 10px;&quot;&gt;&lt;font style=&quot;font-size: 10px;&quot;&gt;User is displayed a menu if they want to run the simulation in educational mode or gameplay mode&lt;/font&gt;&lt;/span&gt;" style="rhombus;whiteSpace=wrap;html=1;rounded=1;shadow=0;fontFamily=Comfortaa;fontSource=https%3A%2F%2Ffonts.googleapis.com%2Fcss%3Ffamily%3DComfortaa;fontSize=10;" parent="1" vertex="1">
          <mxGeometry x="320" y="320" width="160" height="110" as="geometry" />
        </mxCell>
        <mxCell id="VOCYuRBp8f_-Mo9M2Sug-4" value="" style="endArrow=classic;html=1;rounded=0;exitX=0;exitY=0.5;exitDx=0;exitDy=0;entryX=0.688;entryY=0.182;entryDx=0;entryDy=0;fontFamily=Comfortaa;fontSource=https%3A%2F%2Ffonts.googleapis.com%2Fcss%3Ffamily%3DComfortaa;fontSize=10;entryPerimeter=0;" parent="1" source="VOCYuRBp8f_-Mo9M2Sug-1" target="VOCYuRBp8f_-Mo9M2Sug-3" edge="1">
          <mxGeometry width="50" height="50" relative="1" as="geometry">
            <mxPoint x="320" y="320" as="sourcePoint" />
            <mxPoint x="370" y="270" as="targetPoint" />
          </mxGeometry>
        </mxCell>
        <mxCell id="VOCYuRBp8f_-Mo9M2Sug-5" value="Gameplay" style="endArrow=classic;html=1;rounded=0;exitX=0;exitY=0.5;exitDx=0;exitDy=0;entryX=0.5;entryY=0;entryDx=0;entryDy=0;fontFamily=Comfortaa;fontSource=https%3A%2F%2Ffonts.googleapis.com%2Fcss%3Ffamily%3DComfortaa;fontSize=10;" parent="1" source="VOCYuRBp8f_-Mo9M2Sug-3" target="VOCYuRBp8f_-Mo9M2Sug-7" edge="1">
          <mxGeometry width="50" height="50" relative="1" as="geometry">
            <mxPoint x="250" y="440" as="sourcePoint" />
            <mxPoint x="240" y="440" as="targetPoint" />
          </mxGeometry>
        </mxCell>
        <mxCell id="VOCYuRBp8f_-Mo9M2Sug-6" value="Educational" style="endArrow=classic;html=1;rounded=0;exitX=1;exitY=0.5;exitDx=0;exitDy=0;entryX=0.5;entryY=0;entryDx=0;entryDy=0;fontFamily=Comfortaa;fontSource=https%3A%2F%2Ffonts.googleapis.com%2Fcss%3Ffamily%3DComfortaa;fontSize=10;" parent="1" source="VOCYuRBp8f_-Mo9M2Sug-3" target="VOCYuRBp8f_-Mo9M2Sug-9" edge="1">
          <mxGeometry width="50" height="50" relative="1" as="geometry">
            <mxPoint x="530" y="450" as="sourcePoint" />
            <mxPoint x="570" y="440" as="targetPoint" />
          </mxGeometry>
        </mxCell>
        <mxCell id="VOCYuRBp8f_-Mo9M2Sug-7" value="&lt;span style=&quot;color: rgb(0, 0, 0); font-size: 10px; font-style: normal; font-weight: 400; letter-spacing: normal; text-align: center; text-indent: 0px; text-transform: none; word-spacing: 0px; background-color: rgb(248, 249, 250); text-decoration: none; display: inline; float: none;&quot;&gt;User can choose between opening a new game or running an existing/uploaded/preset simulations&lt;/span&gt;" style="rhombus;whiteSpace=wrap;html=1;labelBorderColor=none;labelBackgroundColor=none;rounded=1;fontFamily=Comfortaa;fontSource=https%3A%2F%2Ffonts.googleapis.com%2Fcss%3Ffamily%3DComfortaa;fontSize=10;" parent="1" vertex="1">
          <mxGeometry x="160" y="440" width="160" height="110" as="geometry" />
        </mxCell>
        <mxCell id="VOCYuRBp8f_-Mo9M2Sug-9" value="&lt;p style=&quot;font-size: 10px;&quot;&gt;&lt;span style=&quot;color: rgb(0, 0, 0); font-style: normal; font-weight: 400; letter-spacing: normal; text-align: center; text-indent: 0px; text-transform: none; word-spacing: 0px; background-color: rgb(248, 249, 250); text-decoration: none; display: inline; float: none; font-size: 10px;&quot;&gt;&lt;font data-font-src=&quot;https://fonts.googleapis.com/css?family=Comfortaa&quot; style=&quot;font-size: 10px&quot;&gt;User will be displayed with a selection of pre-made tutorials they can choose from&lt;/font&gt;&lt;/span&gt;&lt;/p&gt;" style="shape=parallelogram;perimeter=parallelogramPerimeter;whiteSpace=wrap;html=1;fixedSize=1;labelBackgroundColor=none;labelBorderColor=none;rounded=1;fontFamily=Comfortaa;fontSource=https%3A%2F%2Ffonts.googleapis.com%2Fcss%3Ffamily%3DComfortaa;fontSize=10;" parent="1" vertex="1">
          <mxGeometry x="460" y="440" width="130" height="70" as="geometry" />
        </mxCell>
        <mxCell id="VOCYuRBp8f_-Mo9M2Sug-10" value="Existing/Uploaded/Preset" style="endArrow=classic;html=1;rounded=0;exitX=0;exitY=1;exitDx=0;exitDy=0;fontFamily=Comfortaa;fontSource=https%3A%2F%2Ffonts.googleapis.com%2Fcss%3Ffamily%3DComfortaa;fontSize=10;entryX=0.5;entryY=0;entryDx=0;entryDy=0;" parent="1" source="VOCYuRBp8f_-Mo9M2Sug-7" target="VOCYuRBp8f_-Mo9M2Sug-17" edge="1">
          <mxGeometry width="50" height="50" relative="1" as="geometry">
            <mxPoint x="180" y="640" as="sourcePoint" />
            <mxPoint x="130" y="600" as="targetPoint" />
          </mxGeometry>
        </mxCell>
        <mxCell id="VOCYuRBp8f_-Mo9M2Sug-12" value="New game" style="endArrow=classic;html=1;rounded=0;exitX=1;exitY=1;exitDx=0;exitDy=0;fontFamily=Comfortaa;fontSource=https%3A%2F%2Ffonts.googleapis.com%2Fcss%3Ffamily%3DComfortaa;fontSize=10;entryX=0.5;entryY=0;entryDx=0;entryDy=0;" parent="1" source="VOCYuRBp8f_-Mo9M2Sug-7" target="VOCYuRBp8f_-Mo9M2Sug-16" edge="1">
          <mxGeometry width="50" height="50" relative="1" as="geometry">
            <mxPoint x="320" y="600" as="sourcePoint" />
            <mxPoint x="354" y="590" as="targetPoint" />
          </mxGeometry>
        </mxCell>
        <mxCell id="VOCYuRBp8f_-Mo9M2Sug-16" value="&lt;span style=&quot;color: rgb(0, 0, 0); font-family: comfortaa; font-size: 10px; font-style: normal; font-weight: 400; letter-spacing: normal; text-align: center; text-indent: 0px; text-transform: none; word-spacing: 0px; background-color: rgb(248, 249, 250); text-decoration: none; display: inline; float: none;&quot;&gt;Setup menu is displayed where the user can set the name of the world along with predefining other settings&lt;/span&gt;" style="shape=parallelogram;perimeter=parallelogramPerimeter;whiteSpace=wrap;html=1;fixedSize=1;rounded=1;shadow=0;fontFamily=Comfortaa;fontSource=https%3A%2F%2Ffonts.googleapis.com%2Fcss%3Ffamily%3DComfortaa;fontSize=10;fontColor=default;strokeColor=default;fillColor=default;" parent="1" vertex="1">
          <mxGeometry x="310" y="590" width="140" height="70" as="geometry" />
        </mxCell>
        <mxCell id="VOCYuRBp8f_-Mo9M2Sug-17" value="&lt;span style=&quot;color: rgb(0, 0, 0); font-family: comfortaa; font-size: 10px; font-style: normal; font-weight: 400; letter-spacing: normal; text-align: center; text-indent: 0px; text-transform: none; word-spacing: 0px; background-color: rgb(248, 249, 250); text-decoration: none; display: inline; float: none;&quot;&gt;Menu displays letting the user upload a saved simulation or choose from past simulations/presets&lt;/span&gt;" style="shape=parallelogram;perimeter=parallelogramPerimeter;whiteSpace=wrap;html=1;fixedSize=1;rounded=1;shadow=0;fontFamily=Comfortaa;fontSource=https%3A%2F%2Ffonts.googleapis.com%2Fcss%3Ffamily%3DComfortaa;fontSize=10;fontColor=default;strokeColor=default;fillColor=default;" parent="1" vertex="1">
          <mxGeometry x="130" y="620" width="140" height="60" as="geometry" />
        </mxCell>
        <mxCell id="ksKInaGkqq0x8V4eD9vV-1" value="&lt;span style=&quot;color: rgb(0 , 0 , 0) ; font-family: &amp;#34;comfortaa&amp;#34; ; font-size: 10px ; font-style: normal ; font-weight: 400 ; letter-spacing: normal ; text-align: center ; text-indent: 0px ; text-transform: none ; word-spacing: 0px ; background-color: rgb(248 , 249 , 250) ; text-decoration: none ; display: inline ; float: none&quot;&gt;Once the user chooses a tutorial, it will run the simulation guide and they will be led through it.&lt;/span&gt;" style="shape=parallelogram;perimeter=parallelogramPerimeter;whiteSpace=wrap;html=1;fixedSize=1;rounded=1;shadow=0;fontFamily=Comfortaa;fontSource=https%3A%2F%2Ffonts.googleapis.com%2Fcss%3Ffamily%3DComfortaa;fontSize=10;fontColor=default;strokeColor=default;fillColor=default;" vertex="1" parent="1">
          <mxGeometry x="500" y="540" width="140" height="70" as="geometry" />
        </mxCell>
        <mxCell id="ksKInaGkqq0x8V4eD9vV-2" value="" style="endArrow=classic;html=1;rounded=0;fontFamily=Comfortaa;fontSource=https%3A%2F%2Ffonts.googleapis.com%2Fcss%3Ffamily%3DComfortaa;fontSize=10;fontColor=default;exitX=0.5;exitY=1;exitDx=0;exitDy=0;entryX=0.5;entryY=0;entryDx=0;entryDy=0;" edge="1" parent="1" source="VOCYuRBp8f_-Mo9M2Sug-9" target="ksKInaGkqq0x8V4eD9vV-1">
          <mxGeometry width="50" height="50" relative="1" as="geometry">
            <mxPoint x="570" y="510" as="sourcePoint" />
            <mxPoint x="650" y="640" as="targetPoint" />
          </mxGeometry>
        </mxCell>
        <mxCell id="ksKInaGkqq0x8V4eD9vV-3" value="&lt;span style=&quot;color: rgb(0, 0, 0); font-family: comfortaa; font-size: 10px; font-style: normal; font-weight: 400; letter-spacing: normal; text-align: center; text-indent: 0px; text-transform: none; word-spacing: 0px; background-color: rgb(248, 249, 250); text-decoration: none; display: inline; float: none;&quot;&gt;They will also be asked questions throughout the tutorial&lt;/span&gt;" style="shape=parallelogram;perimeter=parallelogramPerimeter;whiteSpace=wrap;html=1;fixedSize=1;rounded=1;shadow=0;fontFamily=Comfortaa;fontSource=https%3A%2F%2Ffonts.googleapis.com%2Fcss%3Ffamily%3DComfortaa;fontSize=10;fontColor=default;strokeColor=default;fillColor=default;" vertex="1" parent="1">
          <mxGeometry x="530" y="640" width="120" height="70" as="geometry" />
        </mxCell>
        <mxCell id="ksKInaGkqq0x8V4eD9vV-4" value="" style="endArrow=classic;html=1;rounded=0;fontFamily=Comfortaa;fontSource=https%3A%2F%2Ffonts.googleapis.com%2Fcss%3Ffamily%3DComfortaa;fontSize=10;fontColor=default;exitX=0.5;exitY=1;exitDx=0;exitDy=0;entryX=0.5;entryY=0;entryDx=0;entryDy=0;" edge="1" parent="1" source="ksKInaGkqq0x8V4eD9vV-1" target="ksKInaGkqq0x8V4eD9vV-3">
          <mxGeometry width="50" height="50" relative="1" as="geometry">
            <mxPoint x="560" y="730" as="sourcePoint" />
            <mxPoint x="610" y="680" as="targetPoint" />
          </mxGeometry>
        </mxCell>
        <mxCell id="ksKInaGkqq0x8V4eD9vV-5" value="&lt;span style=&quot;color: rgb(0 , 0 , 0) ; font-family: &amp;#34;comfortaa&amp;#34; ; font-size: 10px ; font-style: normal ; font-weight: 400 ; letter-spacing: normal ; text-align: center ; text-indent: 0px ; text-transform: none ; word-spacing: 0px ; background-color: rgb(248 , 249 , 250) ; text-decoration: none ; display: inline ; float: none&quot;&gt;A menu will be displayed showing a score for how well they answered questions from which they can go back to the tutorial menu&lt;/span&gt;" style="shape=parallelogram;perimeter=parallelogramPerimeter;whiteSpace=wrap;html=1;fixedSize=1;rounded=1;shadow=0;fontFamily=Comfortaa;fontSource=https%3A%2F%2Ffonts.googleapis.com%2Fcss%3Ffamily%3DComfortaa;fontSize=10;fontColor=default;strokeColor=default;fillColor=default;" vertex="1" parent="1">
          <mxGeometry x="540" y="730" width="150" height="70" as="geometry" />
        </mxCell>
        <mxCell id="ksKInaGkqq0x8V4eD9vV-6" value="" style="endArrow=classic;html=1;rounded=0;fontFamily=Comfortaa;fontSource=https%3A%2F%2Ffonts.googleapis.com%2Fcss%3Ffamily%3DComfortaa;fontSize=10;fontColor=default;exitX=0.5;exitY=1;exitDx=0;exitDy=0;entryX=0.5;entryY=0;entryDx=0;entryDy=0;" edge="1" parent="1" source="ksKInaGkqq0x8V4eD9vV-3" target="ksKInaGkqq0x8V4eD9vV-5">
          <mxGeometry width="50" height="50" relative="1" as="geometry">
            <mxPoint x="570" y="760" as="sourcePoint" />
            <mxPoint x="620" y="710" as="targetPoint" />
          </mxGeometry>
        </mxCell>
        <mxCell id="ksKInaGkqq0x8V4eD9vV-7" value="" style="curved=1;endArrow=classic;html=1;rounded=0;fontFamily=Comfortaa;fontSource=https%3A%2F%2Ffonts.googleapis.com%2Fcss%3Ffamily%3DComfortaa;fontSize=10;fontColor=default;entryX=1;entryY=0.25;entryDx=0;entryDy=0;" edge="1" parent="1" source="ksKInaGkqq0x8V4eD9vV-5" target="VOCYuRBp8f_-Mo9M2Sug-9">
          <mxGeometry width="50" height="50" relative="1" as="geometry">
            <mxPoint x="760" y="640" as="sourcePoint" />
            <mxPoint x="810" y="590" as="targetPoint" />
            <Array as="points">
              <mxPoint x="700" y="640" />
              <mxPoint x="670" y="500" />
            </Array>
          </mxGeometry>
        </mxCell>
        <mxCell id="ksKInaGkqq0x8V4eD9vV-8" value="Simulation is run" style="shape=parallelogram;perimeter=parallelogramPerimeter;whiteSpace=wrap;html=1;fixedSize=1;rounded=1;shadow=0;fontFamily=Comfortaa;fontSource=https%3A%2F%2Ffonts.googleapis.com%2Fcss%3Ffamily%3DComfortaa;fontSize=10;fontColor=default;strokeColor=default;fillColor=default;" vertex="1" parent="1">
          <mxGeometry x="260" y="710" width="120" height="60" as="geometry" />
        </mxCell>
        <mxCell id="ksKInaGkqq0x8V4eD9vV-9" value="" style="endArrow=classic;html=1;rounded=0;fontFamily=Comfortaa;fontSource=https%3A%2F%2Ffonts.googleapis.com%2Fcss%3Ffamily%3DComfortaa;fontSize=10;fontColor=default;exitX=0.537;exitY=1.003;exitDx=0;exitDy=0;exitPerimeter=0;entryX=0;entryY=0.25;entryDx=0;entryDy=0;" edge="1" parent="1" source="VOCYuRBp8f_-Mo9M2Sug-17" target="ksKInaGkqq0x8V4eD9vV-8">
          <mxGeometry width="50" height="50" relative="1" as="geometry">
            <mxPoint x="100" y="750" as="sourcePoint" />
            <mxPoint x="150" y="700" as="targetPoint" />
          </mxGeometry>
        </mxCell>
        <mxCell id="ksKInaGkqq0x8V4eD9vV-10" value="" style="endArrow=classic;html=1;rounded=0;fontFamily=Comfortaa;fontSource=https%3A%2F%2Ffonts.googleapis.com%2Fcss%3Ffamily%3DComfortaa;fontSize=10;fontColor=default;exitX=0.25;exitY=1;exitDx=0;exitDy=0;entryX=0.75;entryY=0;entryDx=0;entryDy=0;" edge="1" parent="1" source="VOCYuRBp8f_-Mo9M2Sug-16" target="ksKInaGkqq0x8V4eD9vV-8">
          <mxGeometry width="50" height="50" relative="1" as="geometry">
            <mxPoint x="360" y="730" as="sourcePoint" />
            <mxPoint x="410" y="680" as="targetPoint" />
          </mxGeometry>
        </mxCell>
        <mxCell id="ksKInaGkqq0x8V4eD9vV-11" value="" style="curved=1;endArrow=classic;html=1;rounded=0;fontFamily=Comfortaa;fontSource=https%3A%2F%2Ffonts.googleapis.com%2Fcss%3Ffamily%3DComfortaa;fontSize=10;fontColor=default;exitX=1;exitY=0.5;exitDx=0;exitDy=0;entryX=1;entryY=0.5;entryDx=0;entryDy=0;" edge="1" parent="1" source="ksKInaGkqq0x8V4eD9vV-8" target="VOCYuRBp8f_-Mo9M2Sug-7">
          <mxGeometry width="50" height="50" relative="1" as="geometry">
            <mxPoint x="340" y="720" as="sourcePoint" />
            <mxPoint x="390" y="670" as="targetPoint" />
            <Array as="points">
              <mxPoint x="450" y="720" />
              <mxPoint x="490" y="530" />
            </Array>
          </mxGeometry>
        </mxCell>
      </root>
    </mxGraphModel>
  </diagram>
</mxfile>
